<svg width="129" height="19" viewBox="0 0 129 19" fill="none" xmlns="http://www.w3.org/2000/svg">
<path d="M11.8 13.125V12.2H8.375V13.125C8.375 14.125 7.675 14.6 6.575 14.6C4.45 14.6 4.2 12.475 4.2 9.25C4.2 6.025 4.45 3.9 6.575 3.9C7.7 3.9 8.4 4.325 8.4 5.375V6.3H11.8V5.375C11.8 1.7 9.275 0.374999 6.575 0.374999C1.425 0.374999 0.75 4.4 0.75 9.25C0.75 14.1 1.425 18.125 6.575 18.125C9.275 18.125 11.8 16.825 11.8 13.125ZM13.9248 0.499999V18H17.3998V12.825H18.2248L21.0748 18H24.9748L21.7248 11.975C23.6998 10.775 24.1498 8.525 24.1498 6.675C24.1498 3.975 23.3498 0.499999 18.2498 0.499999H13.9248ZM17.3998 9.3V4.025H18.2498C20.3748 4.025 20.6748 5.2 20.6748 6.675C20.6748 8.125 20.3748 9.225 18.2248 9.3H17.3998ZM26.6113 0.499999V18H35.5363V14.475H30.0863V11.2H34.5113V7.675H30.0863V4.025H35.3863V0.499999H26.6113ZM42.1563 0.499999L37.1562 18H40.7563L41.5563 14.975H45.9563L46.7813 18H50.3562L45.3813 0.499999H42.1563ZM42.5313 11.45L43.7562 7.2C44.7813 10.775 44.8813 11.1 45.0063 11.45H42.5313ZM62.3996 13.125V12.2H58.9746V13.125C58.9746 14.125 58.2746 14.6 57.1746 14.6C55.0496 14.6 54.7996 12.475 54.7996 9.25C54.7996 6.025 55.0496 3.9 57.1746 3.9C58.2996 3.9 58.9996 4.325 58.9996 5.375V6.3H62.3996V5.375C62.3996 1.7 59.8746 0.374999 57.1746 0.374999C52.0246 0.374999 51.3496 4.4 51.3496 9.25C51.3496 14.1 52.0246 18.125 57.1746 18.125C59.8746 18.125 62.3996 16.825 62.3996 13.125ZM64.7686 0.499999V18H68.2436V11.875H71.4436V18H74.9186V0.499999H71.4436V8.375H68.2436V0.499999H64.7686ZM77.2842 0.499999V18H86.2092V14.475H80.7592V11.2H85.1842V7.675H80.7592V4.025H86.0592V0.499999H77.2842ZM88.3291 0.499999V18H96.9541V14.4H91.7791V0.499999H88.3291ZM98.5742 0.499999V18H107.199V14.4H102.024V0.499999H98.5742ZM113.319 0.499999L108.319 18H111.919L112.719 14.975H117.119L117.944 18H121.519L116.544 0.499999H113.319ZM113.694 11.45L114.919 7.2C115.944 10.775 116.044 11.1 116.169 11.45H113.694ZM128.017 15.825C128.017 14.475 127.092 13.5 125.867 13.5C124.567 13.5 123.642 14.475 123.642 15.825C123.642 17.125 124.567 18.125 125.867 18.125C127.092 18.125 128.017 17.125 128.017 15.825Z" fill="black"/>
</svg>
